<svg width="437" height="658" viewBox="0 0 437 658" fill="none" xmlns="http://www.w3.org/2000/svg">
<path d="M0.57765 584.112C-2.80757 567.623 9.51088 561.783 16.0933 560.924L88.7347 569.942L128.934 571.874C144.168 565.175 150.327 573.806 151.502 578.959C155.452 576.383 160.671 577.886 162.786 578.959L214.975 584.112L303.132 569.942L414.563 579.603C441.08 586.302 438.306 606.871 433.604 616.318C421.192 634.868 399.752 624.047 390.584 616.318C390.02 622.501 383.296 627.912 380.005 629.844C368.721 633.451 359.788 629.2 356.732 626.624C354.475 632.807 346.858 638.647 343.332 640.794C333.74 643.886 327.111 639.506 324.995 636.93C319.353 645.174 308.069 649.383 303.132 650.456C275.486 652.002 264.813 635.212 262.933 626.624C259.547 631.777 248.357 634.353 243.186 634.997C233.03 635.513 224.849 632.206 222.028 630.489C222.028 652.131 205.572 657.541 197.344 657.541C174.776 658.057 169.134 644.444 169.134 637.574C166.313 642.211 156.674 645.088 152.208 645.947C140.924 645.947 137.632 634.353 137.397 628.556C124.985 637.316 117.18 630.489 114.829 625.98C112.008 632.163 106.601 636.286 104.25 637.574C91.8378 641.696 86.3839 634.138 85.2084 629.844C80.6948 644.788 65.9315 648.524 59.114 648.524C34.8532 646.978 31.6091 627.697 33.0196 618.25C23.4281 621.342 17.2689 616.962 15.3882 614.386C9.74616 606.141 15.3882 600.215 18.9145 598.283C8.7588 596.222 2.45839 587.977 0.57765 584.112Z" fill="#BEC6DC"/>
<path d="M80.2715 520.989C101.147 522.02 108.247 533.872 109.187 539.669C120.471 537.607 126.583 544.821 128.229 548.686C133.871 565.691 124.938 575.954 119.766 578.96C123.151 595.449 114.124 598.283 109.187 597.639C112.008 609.491 107.071 615.03 104.25 616.318C93.5303 620.441 87.089 612.883 85.2083 608.589C83.5157 620.441 74.1593 623.833 69.6927 624.048C53.895 624.563 53.2368 609.233 54.8824 601.504C51.4971 606.141 44.5386 606.012 41.4825 605.368C28.5058 600.731 31.3738 589.695 34.43 584.757C12.426 594.032 4.10399 582.61 2.69348 575.739C2.69348 561.826 17.2688 560.066 24.5564 560.924C25.6848 540.313 44.7737 539.883 54.1771 542.245C56.4339 525.24 72.5137 520.989 80.2715 520.989Z" fill="#D7DEF3"/>
<ellipse cx="15.3881" cy="531.939" rx="13.3998" ry="10.9499" fill="#D7DEF3"/>
<ellipse cx="391.994" cy="508.751" rx="13.3998" ry="10.9499" fill="#D7DEF3"/>
<path d="M148.681 591.305C149.245 581.515 158.79 580.355 163.492 580.999C161.235 570.178 169.604 566.185 174.07 565.541C170.685 554.719 175.481 546.861 178.302 544.285C194.1 533.464 206.512 543.641 210.744 550.082C220.335 532.562 235.898 528.611 242.48 528.826C271.819 530.372 278.213 551.8 277.743 562.32C291.284 552.014 310.655 557.167 318.648 561.032C323.161 548.665 336.514 546.432 342.626 546.861C344.319 531.403 356.967 525.82 363.079 524.961C385.083 523.416 389.643 538.917 389.173 546.861C401.586 545.831 402.808 554.591 401.868 559.1C409.767 560.13 414.092 565.97 415.268 568.761C418.089 579.582 408.45 587.441 403.278 590.017C409.485 601.869 401.633 607.838 396.931 609.34C383.954 612.432 378.359 602.899 377.184 597.746C374.363 604.445 367.545 604.402 364.489 603.543C353.769 598.906 357.202 587.011 360.258 581.644C352.923 585.766 346.388 581.644 344.037 579.067C339.523 593.495 326.17 591.091 320.058 588.085C323.443 595.299 321.469 602.255 320.058 604.832C315.545 612.561 303.132 612.776 297.49 611.917C296.926 625.83 287.852 630.167 283.385 630.596C267.587 631.112 262.697 618.787 262.227 612.561C256.021 623.382 246.477 626.087 242.48 626.087C226.118 625.572 226.259 610.843 228.375 603.543C216.527 609.727 209.803 603.973 207.923 600.323C202.845 611.144 191.702 610.843 186.765 609.34C187.329 621.707 178.537 623.94 174.07 623.511C161.658 621.45 161.846 610.199 163.492 604.832C151.643 603.801 148.681 595.385 148.681 591.305Z" fill="#D7DEF3"/>
<path d="M196.639 562.213C182.534 564.274 174.776 557.06 172.66 553.195C170.967 557.317 172.895 562.642 174.07 564.789C190.432 560.667 197.344 571.23 198.754 577.027C201.575 566.721 213.565 565.433 219.207 566.077C215.257 559.379 202.516 560.71 196.639 562.213Z" fill="#BEC6DC"/>
<path d="M266.899 537.96C274.046 542.556 284.066 558.552 266.975 585.772C269.839 574.557 273.834 549.293 266.899 537.96Z" fill="#BEC6DC"/>
<path d="M248.428 559.402C247.445 553.107 241.264 548.333 237.137 546.076C236.073 545.494 234.817 545.437 233.659 545.799L177.297 563.397C175.562 563.939 174.108 565.418 174.459 567.201C175.268 571.306 179.53 573.988 181.983 574.931C185.194 576.295 186.394 578.317 186.592 579.158C187.273 582.019 183.907 584.475 182.139 585.344C180.621 586.199 179.896 587.023 179.633 587.74C179.103 589.181 181.16 589.676 182.645 589.287L185.061 588.654C186.949 588.16 188.952 588.809 190.191 590.316L200.042 602.3C201.21 603.721 203.178 604.719 204.852 605.483C206.751 606.573 206.608 608.245 206.137 609.326C205.95 609.754 205.609 610.088 205.255 610.393C202.8 612.512 202.134 614.054 202.117 614.586C202.072 617.118 204.39 618.286 206.787 618.751C208.911 619.163 211.025 617.569 212.892 616.474C215.527 614.93 219.578 613.751 221.956 613.23C223.865 612.872 226.399 611.653 227.427 611.088C230.852 608.799 230.139 605.543 228.975 603.525L228.95 603.482C228.541 602.773 228.09 601.992 228.43 601.251C229.16 599.656 231.635 598.247 233.049 597.646C235.141 596.863 236.747 595.326 237.897 593.748C238.599 592.783 243.033 590.862 244.197 591.124C246.567 591.748 247.435 592.567 247.573 592.898C248.379 594.345 249.946 596.78 250.981 595.487C251.537 594.793 251.884 594.104 252.05 593.596C252.639 590.339 249.075 586.677 247.219 585.253C246.243 584.483 245.568 583.518 245.112 582.543C244.236 580.675 247.673 579.492 249.705 579.136C251.881 578.756 250.112 577.177 248.188 576.091C247.463 575.682 246.982 575.305 246.696 575.013C246.492 574.805 246.32 574.567 246.149 574.331C244.519 572.074 245.554 568.989 246.318 567.672C248.179 564.067 248.5 560.657 248.428 559.402Z" fill="#D16B09"/>
<path d="M243.982 566.118C244.781 563.64 244.432 561.304 243.753 559.491C242.989 557.447 240.68 556.729 238.548 557.198L188.975 568.096C186.498 568.64 185.111 570.744 186.759 572.67C187.632 573.692 188.645 574.672 189.437 575.373C189.684 575.591 189.922 575.821 190.121 576.083C193.267 580.239 189.286 583.028 186.823 583.921C182.502 585.068 180.652 587.25 180.267 588.197C179.775 589.381 180.139 590.298 180.383 590.608C180.661 591.053 180.961 591.462 181.274 591.835C181.891 592.571 184.58 591.271 185.443 590.849C185.488 590.827 185.516 590.819 185.564 590.807C187.193 590.403 188.448 591.24 189.183 592.075C189.615 592.565 189.835 593.212 189.788 593.864C189.52 597.579 184.787 601.696 182.25 603.408C181.151 604.318 180.454 605.194 180.07 606.024C178.195 610.069 188.162 609.284 192.617 609.135C193.761 609.097 194.851 609.134 195.736 609.209C200.901 608.99 201.998 606.663 201.902 605.527C201.645 603.453 203.69 604.034 205.114 604.765C205.473 604.949 205.806 605.186 206.058 605.5C207.877 607.766 205.713 610.67 204.31 611.905C200.455 614.47 204.424 617.563 207.111 618.913C207.281 618.998 207.507 619.142 207.65 619.267C209.009 620.449 210.305 620.607 210.076 618.821C209.713 615.861 220.111 612.532 225.356 611.237C230.436 609.358 229.657 605.565 228.263 603.245C227.877 602.604 227.408 601.933 227.549 601.198C227.939 599.16 230.989 597.486 232.717 596.827C234.154 596.185 235.295 595.396 236.193 594.557C238.45 592.449 242.5 590.125 245.488 590.905C245.557 590.923 245.625 590.94 245.689 590.957C245.757 590.974 245.825 590.997 245.89 591.025C246.342 591.221 246.722 591.433 247.036 591.657C248.16 592.456 250.983 594.374 251.244 593.019C251.93 590.61 248.294 586.679 246.072 584.722C245.821 584.5 245.579 584.266 245.371 584.003C243.719 581.912 243.424 580.274 243.639 579.154C243.842 578.1 245.964 578.329 247.009 578.573C249.249 579.096 248.095 577.384 246.282 575.97C242.816 573.266 243.116 568.668 243.982 566.118Z" fill="#FA8408"/>
<path d="M242.219 560.327C242.965 551.712 237.797 546.477 235.051 544.911C222.595 539.731 207.366 542.54 201.309 544.592C186.57 548.928 178.889 556.292 175.764 561.164C174.713 562.804 175.191 564.922 176.844 565.952C182.37 569.395 190.14 569.937 193.789 569.714C196.849 569.877 197.606 571.727 197.62 572.939C197.623 573.223 197.553 573.501 197.437 573.76C196.357 576.162 192.377 579.965 190.291 581.763C190.192 581.849 190.098 581.943 190.015 582.045C188.822 583.505 188.249 584.783 188.052 585.851C187.852 586.941 189.271 586.322 190.081 585.566C190.745 584.946 191.343 585.836 191.393 586.743C191.484 588.398 192.191 589.529 192.656 589.974C197.641 594.748 194.835 598.787 192.809 600.21C192.344 600.451 191.909 600.689 191.502 600.926C188.996 602.383 191.095 604.741 193.994 604.724C195.588 604.7 198.049 603.878 199.079 603.471C200.677 602.932 201.708 601.134 202.339 599.21C203.104 596.877 205.198 595.292 206.132 597.563C207.223 600.212 209.665 601.461 208.945 598.688C208.533 597.103 207.702 595.463 206.998 594.349C203.622 590.307 207.142 585.524 209.668 583.306C209.949 583.059 210.269 582.868 210.594 582.683C212.999 581.316 216.407 578.115 217.899 576.591C219.974 574.647 223.641 572.957 223.413 575.792C223.391 576.055 223.36 576.296 223.321 576.51C222.037 581.207 216.723 588.496 213.959 591.892C213.765 592.131 213.586 592.382 213.455 592.66C211.147 597.555 215.237 603.745 217.747 606.416C217.828 606.503 217.912 606.623 217.962 606.731C218.565 608.048 220.091 610.818 221.391 610.179C221.463 610.143 221.53 610.109 221.59 610.078C225.965 608.223 225.163 605.434 224.215 604.272C222.455 601.803 225.176 599.216 226.757 598.231C228.083 597.364 231.66 593.686 233.283 591.955C236.358 588.566 233.505 583.733 231.694 581.74C231.283 581.191 230.933 580.675 230.635 580.192C229.585 578.485 230.752 578.271 231.985 579.852C234.197 582.738 240.211 585.927 242.941 587.162C243.614 587.521 244.535 586.869 244.163 586.203C242.913 583.965 240.984 581.553 239.888 580.322C238.562 578.729 237.605 577.189 236.927 575.819C236.335 574.624 238.497 574.856 239.642 575.538C240.627 576.125 240.439 574.534 240.222 573.409C239.498 569.663 240.816 564.557 241.913 561.602C242.066 561.191 242.181 560.765 242.219 560.327Z" fill="#F8B92C"/>
<path d="M226.111 592.395C226.91 591.864 227.511 591.305 227.95 590.737C230.087 587.978 225.57 587.359 223.025 589.745C222.035 590.673 221.127 591.399 220.519 591.831C217.33 594.431 222.203 595.412 225.452 592.888C225.688 592.704 225.909 592.539 226.111 592.395Z" fill="#F9EC4E"/>
<path d="M210.911 568.025C210.241 561.633 200.861 559.074 196.254 558.594C192.916 557.978 188.909 560.475 190.554 563.444C192.338 566.665 195.186 568.38 196.967 568.94C197.414 569.024 197.837 569.118 198.237 569.223C202.395 570.305 211.629 572.261 210.911 568.025Z" fill="#F9EC4E"/>
<path d="M235.506 554.005C229.854 542.98 216.354 542.64 210.31 543.849C204.325 544.644 201.594 547.647 200.977 549.049C199.571 553.316 206.997 556.996 211.353 558.478C211.709 558.599 212.08 558.667 212.453 558.71C217.234 559.269 220.426 561.768 222.41 564.425C223.899 566.418 226.454 566.494 225.737 564.111C224.966 561.554 226.613 559.446 227.785 561.847C228.618 563.554 228.91 565.461 228.918 566.755C229.364 569.798 232.969 568.288 233.883 565.352C233.912 565.261 233.94 565.172 233.968 565.087C234.083 564.734 234.272 564.413 234.489 564.113C237.333 560.171 236.378 555.768 235.506 554.005Z" fill="#F9EC4E"/>
<path d="M347.323 554.441C346.341 548.145 340.159 543.372 336.033 541.114C334.969 540.532 333.712 540.476 332.554 540.837L276.192 558.435C274.457 558.977 273.003 560.456 273.355 562.239C274.163 566.344 278.426 569.026 280.878 569.97C284.089 571.334 285.289 573.356 285.488 574.196C286.169 577.058 282.802 579.513 281.034 580.383C279.516 581.238 278.792 582.061 278.528 582.779C277.998 584.219 280.055 584.715 281.54 584.326L283.957 583.693C285.844 583.199 287.847 583.847 289.086 585.355L298.937 597.339C300.106 598.76 302.074 599.758 303.747 600.521C305.646 601.612 305.504 603.283 305.032 604.364C304.845 604.793 304.504 605.126 304.15 605.432C301.695 607.55 301.029 609.092 301.012 609.624C300.968 612.156 303.286 613.324 305.683 613.79C307.807 614.202 309.921 612.607 311.787 611.513C314.422 609.968 318.474 608.79 320.852 608.268C322.76 607.91 325.294 606.691 326.323 606.127C329.748 603.838 329.034 600.581 327.87 598.563L327.846 598.521C327.437 597.812 326.986 597.031 327.325 596.29C328.055 594.695 330.531 593.285 331.944 592.685C334.036 591.902 335.643 590.364 336.792 588.786C337.494 587.822 341.929 585.9 343.092 586.163C345.462 586.786 346.331 587.605 346.469 587.936C347.274 589.384 348.841 591.818 349.877 590.525C350.432 589.832 350.779 589.143 350.946 588.634C351.535 585.377 347.971 581.716 346.115 580.292C345.139 579.521 344.464 578.556 344.007 577.582C343.132 575.714 346.568 574.53 348.6 574.175C350.777 573.794 349.008 572.216 347.084 571.13C346.358 570.72 345.877 570.343 345.591 570.051C345.388 569.843 345.215 569.605 345.045 569.37C343.414 567.112 344.45 564.028 345.214 562.711C347.074 559.105 347.395 555.695 347.323 554.441Z" fill="#D16B09"/>
<path d="M342.878 561.156C343.676 558.679 343.327 556.343 342.649 554.529C341.884 552.485 339.576 551.767 337.444 552.236L287.87 563.134C285.394 563.679 284.007 565.782 285.654 567.709C286.528 568.73 287.54 569.71 288.333 570.411C288.58 570.63 288.818 570.859 289.017 571.122C292.163 575.278 288.182 578.066 285.719 578.959C281.397 580.107 279.548 582.288 279.163 583.235C278.67 584.42 279.035 585.336 279.279 585.646C279.556 586.092 279.857 586.5 280.17 586.873C280.787 587.61 283.476 586.309 284.338 585.887C284.383 585.865 284.412 585.857 284.46 585.845C286.088 585.441 287.343 586.278 288.079 587.113C288.51 587.603 288.731 588.25 288.684 588.902C288.415 592.618 283.682 596.734 281.145 598.447C280.046 599.357 279.35 600.233 278.965 601.063C277.09 605.107 287.057 604.323 291.513 604.173C292.657 604.135 293.746 604.172 294.631 604.247C299.796 604.028 300.894 601.701 300.797 600.565C300.541 598.492 302.586 599.073 304.01 599.803C304.368 599.987 304.701 600.224 304.953 600.538C306.772 602.805 304.609 605.708 303.206 606.943C299.351 609.509 303.32 612.601 306.006 613.951C306.176 614.036 306.402 614.18 306.546 614.305C307.904 615.487 309.201 615.646 308.972 613.86C308.609 610.899 319.007 607.57 324.252 606.275C329.332 604.397 328.553 600.603 327.158 598.284C326.773 597.642 326.303 596.972 326.444 596.237C326.835 594.198 329.885 592.524 331.613 591.866C333.05 591.223 334.19 590.434 335.089 589.595C337.345 587.488 341.396 585.164 344.384 585.943C344.453 585.961 344.52 585.979 344.585 585.995C344.653 586.013 344.721 586.036 344.786 586.064C345.238 586.26 345.617 586.471 345.931 586.695C347.055 587.494 349.878 589.412 350.14 588.058C350.826 585.648 347.19 581.717 344.968 579.76C344.716 579.538 344.475 579.304 344.267 579.041C342.615 576.95 342.319 575.313 342.535 574.193C342.738 573.138 344.86 573.368 345.905 573.612C348.144 574.134 346.99 572.422 345.177 571.008C341.711 568.305 342.012 563.707 342.878 561.156Z" fill="#FA8408"/>
<path d="M341.114 555.366C341.861 546.751 336.693 541.515 333.947 539.949C321.491 534.769 306.262 537.578 300.204 539.63C285.466 543.966 277.784 551.33 274.66 556.203C273.609 557.842 274.087 559.961 275.739 560.99C281.266 564.433 289.036 564.975 292.684 564.752C295.744 564.915 296.502 566.766 296.515 567.977C296.518 568.261 296.449 568.539 296.332 568.799C295.253 571.201 291.273 575.003 289.187 576.801C289.087 576.887 288.994 576.981 288.91 577.083C287.717 578.543 287.145 579.821 286.948 580.89C286.747 581.979 288.167 581.36 288.977 580.604C289.641 579.984 290.238 580.874 290.288 581.782C290.379 583.437 291.086 584.567 291.552 585.012C296.536 589.786 293.731 593.826 291.705 595.249C291.24 595.489 290.804 595.728 290.397 595.964C287.891 597.421 289.991 599.78 292.889 599.762C294.484 599.738 296.944 598.917 297.975 598.509C299.572 597.97 300.604 596.172 301.234 594.249C302 591.916 304.093 590.331 305.028 592.601C306.119 595.25 308.561 596.499 307.84 593.727C307.428 592.141 306.598 590.501 305.894 589.387C302.517 585.345 306.038 580.562 308.564 578.344C308.845 578.098 309.165 577.906 309.49 577.721C311.895 576.354 315.303 573.153 316.794 571.629C318.87 569.685 322.537 567.996 322.308 570.83C322.287 571.094 322.255 571.335 322.217 571.548C320.932 576.246 315.619 583.534 312.854 586.931C312.66 587.169 312.482 587.42 312.351 587.699C310.042 592.593 314.133 598.784 316.642 601.454C316.724 601.541 316.808 601.662 316.857 601.77C317.46 603.087 318.986 605.856 320.286 605.217C320.359 605.181 320.425 605.148 320.486 605.116C324.86 603.262 324.058 600.473 323.11 599.31C321.351 596.841 324.072 594.254 325.652 593.27C326.979 592.402 330.556 588.724 332.178 586.993C335.254 583.605 332.401 578.771 330.59 576.778C330.179 576.229 329.828 575.714 329.531 575.231C328.48 573.523 329.648 573.309 330.88 574.891C333.093 577.776 339.106 580.966 341.837 582.2C342.509 582.559 343.43 581.907 343.058 581.241C341.808 579.003 339.879 576.592 338.783 575.361C337.458 573.768 336.501 572.227 335.822 570.858C335.231 569.663 337.392 569.894 338.538 570.577C339.522 571.164 339.335 569.573 339.117 568.447C338.393 564.701 339.712 559.595 340.809 556.641C340.962 556.229 341.076 555.803 341.114 555.366Z" fill="#F8B92C"/>
<path d="M325.006 587.433C325.805 586.902 326.406 586.344 326.846 585.776C328.982 583.016 324.466 582.397 321.92 584.784C320.93 585.711 320.023 586.438 319.415 586.87C316.226 589.469 321.098 590.451 324.347 587.926C324.584 587.742 324.805 587.577 325.006 587.433Z" fill="#F9EC4E"/>
<path d="M309.807 563.064C309.137 556.671 299.756 554.113 295.15 553.632C291.812 553.016 287.804 555.513 289.449 558.483C291.233 561.703 294.082 563.418 295.863 563.978C296.309 564.062 296.732 564.157 297.133 564.261C301.29 565.344 310.524 567.299 309.807 563.064Z" fill="#F9EC4E"/>
<path d="M334.402 549.043C328.75 538.018 315.249 537.679 309.206 538.887C303.22 539.683 300.489 542.685 299.872 544.087C298.467 548.354 305.893 552.034 310.249 553.516C310.604 553.637 310.975 553.705 311.348 553.749C316.13 554.307 319.322 556.807 321.306 559.464C322.795 561.457 325.35 561.532 324.632 559.15C323.862 556.592 325.509 554.484 326.68 556.885C327.514 558.593 327.806 560.5 327.813 561.794C328.26 564.837 331.865 563.327 332.779 560.39C332.807 560.299 332.835 560.211 332.863 560.125C332.978 559.773 333.167 559.452 333.384 559.151C336.229 555.209 335.273 550.807 334.402 549.043Z" fill="#F9EC4E"/>
<path d="M67.4739 307.387V469.073C67.4739 588.697 260.545 507.371 360.026 442.4L367.43 268.89C358.372 255.027 339.095 247.819 337.204 246.198L161.848 246.198C147.172 243.928 133.921 277.4 129.129 294.42C117.025 331.052 83.7388 302.254 68.2304 288.341L67.4739 307.387Z" fill="#ECECEF" stroke="#D8D8D8" stroke-width="5"/>
<path d="M68.4686 516.367C68.5902 516.464 68.7158 516.56 68.845 516.655C70.1432 516.951 74.6108 516.494 79.6368 516.566C82.1033 514.272 84.254 509.841 85.3823 502.046C86.2691 495.578 89.9053 482.55 97.3549 482.181C183 490.034 354.101 487.54 353.341 414.733V253.043C355.115 253.505 362.673 257.847 366.626 253.043C368.02 257.816 367.784 265.516 367.784 276.603L366.626 476.983L231.983 531.869L97.3549 526.234C97.1382 518.154 87.6736 516.682 79.6368 516.566C75.9616 519.985 71.5851 518.661 68.845 516.655C68.5793 516.594 68.4464 516.502 68.4686 516.367Z" fill="#D9D9DB"/>
<path d="M65.5758 518.217L66.9102 483.235C67.0052 480.744 69.8523 479.527 71.6552 481.247C75.4662 484.885 79.3231 488.68 81.6037 489.123C82.1818 489.236 82.8008 489.171 83.3707 489.32L90.2216 491.109C91.1972 491.363 92.4926 491.19 93.1081 491.989C94.9718 494.408 96.9947 502.439 97.8838 496.12C98.186 493.972 100.424 492.59 102.372 493.545L104.248 494.465C105.624 495.139 107.288 494.668 108.106 493.37L109.793 490.694C110.41 489.716 111.519 489.178 112.669 489.309C201.055 499.42 320.731 487.219 361.265 467.095C363.415 466.028 365.983 467.622 365.627 469.996C361.287 498.954 332 525.493 314.087 531.513C313.869 531.586 313.648 531.629 313.419 531.648C182.46 542.749 94.703 529.172 67.6361 521.148C66.3498 520.767 65.5247 519.558 65.5758 518.217Z" fill="#272735" stroke="#1B1B25" stroke-width="5"/>
<path d="M82.5633 500.041C78.085 500.245 74.8967 500.014 72.6934 499.616C70.1102 499.149 70.1419 496.724 72.3033 495.235L78.1555 491.202C78.4083 491.027 78.6395 490.825 78.8804 490.634C80.3678 489.458 83.2667 488.641 84.9439 488.295C85.236 488.234 85.5252 488.209 85.8235 488.209C96.9682 488.211 118.41 488.281 118.41 488.551C118.41 488.798 117.42 490.804 116.784 492.054C116.66 492.297 116.566 492.552 116.437 492.793C113.894 497.532 92.9671 499.597 82.5633 500.041Z" fill="#8C9AC1" stroke="#7783A5" stroke-width="5"/>
<path d="M65.5465 247.797C63.0586 250.845 63.3249 255.073 63.8701 257.279C63.9653 257.665 64.073 257.972 64.3948 258.204C75.043 265.877 255.376 265.108 345.526 263.737C365.365 263.889 368.053 258.36 366.917 255.577C365.402 250.112 335.492 239.384 320.727 234.703C282.261 221.496 223.425 220.218 198.816 221.23C107.648 227.606 71.9828 241.598 65.5465 247.797Z" fill="#ECECEF" stroke="#D8D8D8" stroke-width="5"/>
<path d="M344.634 264.866H160.917C158.212 264.866 156.287 267.494 157.103 270.073L160.229 279.948C160.766 281.644 162.359 282.782 164.138 282.739L353.534 278.233C377.584 275.852 363.949 260.471 363.949 262.485C363.949 264.097 351.072 264.744 344.634 264.866Z" fill="#76748A" stroke="#605F71" stroke-width="5"/>
<path d="M69.1749 266.658C68.5261 266.231 67.9474 265.735 67.433 265.197C65.0632 262.716 68.6456 259.673 71.9756 260.499C90.722 265.147 130.701 265.429 153.766 264.806C155.767 264.752 157.492 266.174 157.827 268.149L159.295 276.827C159.708 279.268 157.792 281.502 155.426 282.23C147.098 284.791 139.77 293.422 136.781 298.099C133.749 303.08 126.044 307.974 122.571 309.798C103.813 318.666 76.3404 309.42 71.9827 307.156C68.4965 305.345 67.4986 299.986 67.4355 297.533C67.2284 291.244 68.6596 287.472 70.1109 285.472C71.0286 284.208 71.9827 282.758 71.9827 281.195V270.996C71.9827 269.177 70.6931 267.66 69.1749 266.658Z" fill="#1E1B27" stroke="#1A1822" stroke-width="5"/>
<path d="M72.1045 283.753V271.264C72.1045 269.753 73.7721 268.671 75.2367 269.041C84.0561 271.27 103.268 271.357 114.359 271.036C115.492 271.003 116.426 271.91 116.426 273.043V291.062C116.426 292.151 115.545 293.041 114.457 293.053C88.0074 293.341 75.916 288.115 72.5893 284.981C72.2537 284.665 72.1045 284.215 72.1045 283.753Z" fill="#7DA357" stroke="#607E42" stroke-width="3"/>
<path d="M345.969 264.27V258.898C354.894 259.972 362.798 257.427 365.634 256.02C368.357 258.322 366.769 260.305 365.634 261.008C360.642 263.924 350.444 264.398 345.969 264.27Z" fill="#FF080A" stroke="#E10506" stroke-width="4"/>
<path d="M146.886 553.663C145.903 547.367 139.722 542.594 135.596 540.337C134.532 539.755 133.275 539.698 132.117 540.06L75.755 557.658C74.0203 558.2 72.5664 559.679 72.9175 561.462C73.726 565.567 77.9884 568.249 80.4413 569.192C83.652 570.556 84.852 572.578 85.0507 573.419C85.7316 576.28 82.3653 578.735 80.5971 579.605C79.0792 580.46 78.3548 581.284 78.091 582.001C77.5613 583.442 79.6182 583.937 81.103 583.548L83.5199 582.915C85.4074 582.421 87.4099 583.07 88.6489 584.577L98.5002 596.561C99.6684 597.982 101.637 598.98 103.31 599.744C105.209 600.834 105.067 602.506 104.595 603.587C104.408 604.015 104.067 604.349 103.713 604.654C101.258 606.772 100.592 608.315 100.575 608.847C100.53 611.379 102.849 612.547 105.246 613.012C107.37 613.424 109.484 611.83 111.35 610.735C113.985 609.191 118.037 608.012 120.415 607.491C122.323 607.133 124.857 605.914 125.886 605.349C129.311 603.06 128.597 599.804 127.433 597.786L127.409 597.743C126.999 597.034 126.549 596.253 126.888 595.512C127.618 593.917 130.094 592.508 131.507 591.907C133.599 591.124 135.206 589.587 136.355 588.009C137.057 587.044 141.492 585.123 142.655 585.385C145.025 586.009 145.894 586.827 146.032 587.159C146.837 588.606 148.404 591.041 149.439 589.748C149.995 589.054 150.342 588.365 150.508 587.857C151.098 584.6 147.534 580.938 145.678 579.514C144.701 578.744 144.027 577.779 143.57 576.804C142.694 574.936 146.131 573.753 148.163 573.397C150.34 573.016 148.571 571.438 146.647 570.352C145.921 569.943 145.44 569.565 145.154 569.274C144.951 569.066 144.778 568.828 144.608 568.592C142.977 566.335 144.013 563.25 144.777 561.933C146.637 558.327 146.958 554.917 146.886 553.663Z" fill="#D16B09"/>
<path d="M142.441 560.379C143.239 557.901 142.89 555.565 142.212 553.752C141.447 551.708 139.138 550.99 137.007 551.459L87.4329 562.357C84.9567 562.901 83.5694 565.004 85.2172 566.931C86.0906 567.953 87.103 568.933 87.8957 569.634C88.1425 569.852 88.3805 570.081 88.5793 570.344C91.7256 574.5 87.7445 577.288 85.2816 578.182C80.96 579.329 79.1104 581.51 78.7257 582.458C78.233 583.642 78.5977 584.559 78.8416 584.869C79.119 585.314 79.4199 585.723 79.7325 586.096C80.3495 586.832 83.0383 585.532 83.9012 585.11C83.946 585.088 83.9742 585.08 84.0226 585.068C85.651 584.664 86.906 585.501 87.6413 586.336C88.0732 586.826 88.2938 587.473 88.2467 588.125C87.9779 591.84 83.2451 595.956 80.708 597.669C79.6091 598.579 78.9129 599.455 78.528 600.285C76.653 604.33 86.62 603.545 91.0753 603.396C92.2194 603.358 93.3089 603.395 94.1941 603.469C99.3591 603.251 100.457 600.924 100.36 599.788C100.104 597.714 102.149 598.295 103.573 599.026C103.931 599.21 104.264 599.447 104.516 599.76C106.335 602.027 104.171 604.93 102.768 606.166C98.9133 608.731 102.883 611.824 105.569 613.173C105.739 613.259 105.965 613.403 106.108 613.528C107.467 614.71 108.764 614.868 108.535 613.082C108.171 610.122 118.57 606.792 123.814 605.498C128.895 603.619 128.116 599.826 126.721 597.506C126.335 596.865 125.866 596.194 126.007 595.459C126.398 593.42 129.448 591.747 131.176 591.088C132.612 590.445 133.753 589.657 134.651 588.818C136.908 586.71 140.959 584.386 143.946 585.166C144.016 585.184 144.083 585.201 144.147 585.218C144.215 585.235 144.284 585.258 144.348 585.286C144.801 585.482 145.18 585.694 145.494 585.917C146.618 586.717 149.441 588.635 149.702 587.28C150.389 584.871 146.753 580.94 144.531 578.983C144.279 578.761 144.037 578.527 143.829 578.263C142.177 576.173 141.882 574.535 142.098 573.415C142.301 572.361 144.422 572.59 145.468 572.834C147.707 573.357 146.553 571.645 144.74 570.231C141.274 567.527 141.575 562.929 142.441 560.379Z" fill="#FA8408"/>
<path d="M140.677 554.588C141.424 545.973 136.255 540.738 133.509 539.172C121.053 533.992 105.825 536.801 99.7672 538.853C85.0284 543.189 77.347 550.552 74.2226 555.425C73.1716 557.064 73.6496 559.183 75.3022 560.213C80.8283 563.656 88.5987 564.198 92.2471 563.975C95.3071 564.138 96.0643 565.988 96.0778 567.2C96.081 567.484 96.0115 567.762 95.895 568.021C94.8154 570.423 90.8353 574.226 88.7495 576.024C88.6498 576.11 88.5562 576.204 88.473 576.306C87.2801 577.766 86.7073 579.043 86.5106 580.112C86.3101 581.202 87.7297 580.583 88.5394 579.827C89.2035 579.207 89.801 580.097 89.851 581.004C89.9421 582.659 90.649 583.79 91.1145 584.234C96.099 589.009 93.2935 593.048 91.2677 594.471C90.8023 594.711 90.367 594.95 89.9601 595.187C87.4542 596.644 89.5533 599.002 92.4518 598.985C94.0466 598.961 96.5068 598.139 97.5376 597.732C99.135 597.193 100.166 595.395 100.797 593.471C101.563 591.138 103.656 589.553 104.591 591.824C105.681 594.473 108.123 595.722 107.403 592.949C106.991 591.363 106.161 589.723 105.457 588.61C102.08 584.568 105.601 579.785 108.126 577.567C108.407 577.32 108.728 577.129 109.053 576.944C111.457 575.577 114.866 572.376 116.357 570.852C118.432 568.908 122.099 567.218 121.871 570.053C121.85 570.316 121.818 570.557 121.779 570.771C120.495 575.468 115.182 582.756 112.417 586.153C112.223 586.392 112.045 586.643 111.914 586.921C109.605 591.815 113.695 598.006 116.205 600.677C116.287 600.764 116.371 600.884 116.42 600.992C117.023 602.309 118.549 605.079 119.849 604.44C119.921 604.404 119.988 604.37 120.048 604.339C124.423 602.484 123.621 599.695 122.673 598.532C120.913 596.064 123.634 593.477 125.215 592.492C126.542 591.625 130.118 587.947 131.741 586.216C134.817 582.827 131.963 577.994 130.152 576C129.741 575.452 129.391 574.936 129.094 574.453C128.043 572.746 129.21 572.532 130.443 574.113C132.656 576.999 138.669 580.188 141.399 581.423C142.072 581.782 142.993 581.13 142.621 580.464C141.371 578.226 139.442 575.814 138.346 574.583C137.02 572.99 136.063 571.45 135.385 570.08C134.793 568.885 136.955 569.117 138.1 569.799C139.085 570.386 138.897 568.795 138.68 567.67C137.956 563.924 139.274 558.818 140.372 555.863C140.525 555.451 140.639 555.026 140.677 554.588Z" fill="#F8B92C"/>
<path d="M124.569 586.656C125.368 586.125 125.969 585.566 126.409 584.998C128.545 582.239 124.029 581.62 121.483 584.006C120.493 584.934 119.585 585.66 118.978 586.092C115.788 588.692 120.661 589.673 123.91 587.148C124.146 586.965 124.368 586.8 124.569 586.656Z" fill="#F9EC4E"/>
<path d="M109.37 562.286C108.7 555.894 99.3192 553.335 94.7127 552.855C91.3744 552.239 87.3671 554.736 89.012 557.705C90.796 560.926 93.6443 562.641 95.4258 563.201C95.8719 563.284 96.2949 563.379 96.6958 563.483C100.853 564.566 110.087 566.522 109.37 562.286Z" fill="#F9EC4E"/>
<path d="M133.965 548.266C128.312 537.24 114.812 536.901 108.769 538.11C102.783 538.905 100.052 541.908 99.4351 543.31C98.0297 547.577 105.456 551.256 109.812 552.739C110.167 552.86 110.538 552.928 110.911 552.971C115.692 553.53 118.885 556.029 120.869 558.686C122.357 560.679 124.912 560.755 124.195 558.372C123.425 555.815 125.071 553.707 126.243 556.107C127.076 557.815 127.369 559.722 127.376 561.016C127.823 564.059 131.428 562.549 132.342 559.613C132.37 559.522 132.398 559.433 132.426 559.348C132.541 558.995 132.73 558.674 132.947 558.374C135.792 554.432 134.836 550.029 133.965 548.266Z" fill="#F9EC4E"/>
<path d="M114.772 502.949C82.6224 499.641 76.7901 528.803 77.8926 543.797H144.54C146.524 512.706 125.521 503.61 114.772 502.949Z" fill="#D1D0D6" stroke="#6A687E" stroke-width="4"/>
<path d="M142.072 542.99L135.279 541.151C136.326 529.905 130.516 507.447 99.5571 507.58C93.5095 509.184 79.7118 518.735 79.7118 543.601L77.805 543.601C78.8456 528.11 80.7806 518.957 86.3269 513.398C89.8549 508.151 102.071 499.145 122.71 505.099C130.262 507.372 145.201 518.133 144.54 542.99L142.072 542.99Z" fill="#A6A5B1"/>
<path d="M78.5075 544.709L76.83 553.907L142.059 550.412L136.105 542.64C132.608 541.023 95.5679 543.414 78.5075 544.709Z" fill="#908EA7"/>
<path d="M132.798 549.255C128.396 549.755 94.0268 551.739 76.735 552.173C69.4357 554.11 117.834 553.197 142.224 552.172C148.702 552.096 145.537 545.402 144.705 542.551C144.684 541.917 138.31 542.394 134.51 542.551C136.062 544.908 137.2 548.754 132.798 549.255Z" fill="#76748A"/>
<path d="M142.023 551.998C120.661 552.407 92.0515 553.335 79.6118 553.725C78.1055 553.773 76.7115 552.916 76.7232 551.409C76.7347 549.944 77.0499 548.209 77.425 546.694C77.8106 545.137 79.2193 544.079 80.8196 543.967C116.679 541.467 136.405 541.558 143.02 542.14C144.401 542.261 145.386 543.281 145.463 544.665C145.531 545.898 145.551 547.445 145.475 548.896C145.38 550.707 143.836 551.964 142.023 551.998Z" stroke="#605F71" stroke-width="5"/>
<path d="M313.224 502.949C281.075 499.641 275.243 528.803 276.345 543.797H342.992C344.977 512.706 323.974 503.61 313.224 502.949Z" fill="#D1D0D6" stroke="#6A687E" stroke-width="4"/>
<path d="M340.525 542.99L333.731 541.151C334.779 529.905 328.968 507.447 298.01 507.58C291.962 509.184 278.165 518.735 278.165 543.601L276.258 543.601C277.298 528.11 279.233 518.957 284.78 513.398C288.308 508.151 300.524 499.145 321.163 505.099C328.715 507.372 343.654 518.133 342.992 542.99L340.525 542.99Z" fill="#A6A5B1"/>
<path d="M276.96 544.709L275.283 553.907L340.512 550.412L334.558 542.64C331.061 541.023 294.021 543.414 276.96 544.709Z" fill="#908EA7"/>
<path d="M331.251 549.255C326.849 549.755 292.48 551.739 275.188 552.173C267.888 554.11 316.286 553.197 340.677 552.172C347.155 552.096 343.99 545.402 343.158 542.551C343.137 541.917 336.763 542.394 332.963 542.551C334.515 544.908 335.653 548.754 331.251 549.255Z" fill="#76748A"/>
<path d="M340.476 551.998C319.113 552.407 290.504 553.335 278.065 553.725C276.558 553.773 275.164 552.916 275.176 551.409C275.187 549.944 275.503 548.209 275.878 546.694C276.263 545.137 277.672 544.079 279.272 543.967C315.131 541.467 334.857 541.558 341.473 542.14C342.854 542.261 343.839 543.281 343.915 544.665C343.983 545.898 344.004 547.445 343.928 548.896C343.833 550.707 342.289 551.964 340.476 551.998Z" stroke="#605F71" stroke-width="5"/>
<path d="M217.306 506.257C185.156 502.949 179.324 532.11 180.427 547.105H247.074C249.058 516.014 228.055 506.918 217.306 506.257Z" fill="#D1D0D6" stroke="#6A687E" stroke-width="4"/>
<path d="M244.606 546.298L237.812 544.459C238.86 533.213 233.05 510.755 202.091 510.887C196.043 512.491 182.246 522.042 182.246 546.909L180.339 546.909C181.38 531.417 183.315 522.264 188.861 516.706C192.389 511.459 204.605 502.453 225.244 508.406C232.796 510.68 247.735 521.441 247.074 546.298L244.606 546.298Z" fill="#A6A5B1"/>
<path d="M181.041 548.016L179.364 557.214L244.593 553.72L238.639 545.947C235.142 544.33 198.102 546.721 181.041 548.016Z" fill="#908EA7"/>
<path d="M235.332 552.562C230.93 553.062 196.561 555.047 179.269 555.48C171.97 557.417 220.368 556.504 244.758 555.48C251.236 555.404 248.071 548.71 247.239 545.859C247.218 545.225 240.844 545.702 237.044 545.859C238.596 548.216 239.734 552.062 235.332 552.562Z" fill="#76748A"/>
<path d="M244.557 555.306C223.195 555.714 194.585 556.643 182.146 557.033C180.639 557.08 179.245 556.224 179.257 554.717C179.269 553.252 179.584 551.516 179.959 550.001C180.345 548.444 181.753 547.386 183.354 547.275C219.213 544.774 238.939 544.865 245.554 545.447C246.935 545.569 247.92 546.588 247.996 547.973C248.065 549.206 248.085 550.753 248.009 552.204C247.914 554.014 246.37 555.271 244.557 555.306Z" stroke="#605F71" stroke-width="5"/>
<path d="M145.359 11.962L146.252 11.5964L173.688 88.2289C173.741 90.5122 176.827 96.5214 177.007 97.1624L211.571 196.131L215.154 195.674C201.321 153.945 182.197 105.534 175.65 88.5287L148.2 10.8904L149.092 10.5248L147.226 5.22074L143.166 6.6079L145.359 11.962Z" fill="#272735" stroke="#1B1B25" stroke-width="3"/>
<path d="M280.176 9.38853L279.269 9.0606L255.058 86.7724C255.101 89.0558 252.269 95.1887 252.115 95.8367L221.716 196.162L218.117 195.856C230.194 153.585 247.28 104.418 253.11 87.1538L277.293 8.43653L276.387 8.1086L278.03 2.73117L282.144 3.94752L280.176 9.38853Z" fill="#272735" stroke="#1B1B25" stroke-width="3"/>
<path d="M210.198 190.154V207.395C202.407 208.346 198.736 217.683 197.957 221.621C209.253 223.049 227.305 222.547 234.836 221.952C231.72 212.637 225.812 207.848 223.247 207.395L223.756 190.154C218.536 188.25 212.373 189.36 210.198 190.154Z" fill="#272735" stroke="#1B1B25" stroke-width="3"/>
</svg>
