<svg width="437" height="658" viewBox="0 0 437 658" fill="none" xmlns="http://www.w3.org/2000/svg">
<path d="M436.082 584.112C439.467 567.623 427.149 561.783 420.566 560.924L347.925 569.942L307.725 571.874C292.492 565.175 286.333 573.806 285.157 578.959C281.208 576.383 275.989 577.886 273.873 578.959L221.684 584.112L133.527 569.942L22.0971 579.603C-4.42047 586.302 -1.64645 606.871 3.05524 616.318C15.4677 634.868 36.9075 624.047 46.0758 616.318C46.64 622.501 53.3634 627.912 56.6546 629.844C67.9387 633.451 76.8719 629.2 79.928 626.624C82.1848 632.807 89.8016 638.647 93.3279 640.794C102.919 643.886 109.549 639.506 111.665 636.93C117.307 645.174 128.591 649.382 133.527 650.456C161.173 652.002 171.846 635.212 173.727 626.624C177.112 631.777 188.302 634.353 193.474 634.997C203.63 635.513 211.811 632.206 214.632 630.488C214.632 652.131 231.088 657.541 239.316 657.541C261.884 658.057 267.526 644.444 267.526 637.574C270.347 642.211 279.985 645.088 284.452 645.947C295.736 645.947 299.027 634.353 299.262 628.556C311.675 637.316 319.48 630.488 321.831 625.98C324.652 632.163 330.058 636.285 332.409 637.574C344.822 641.696 350.276 634.138 351.451 629.844C355.965 644.788 370.728 648.524 377.546 648.524C401.806 646.978 405.051 627.697 403.64 618.25C413.232 621.342 419.391 616.962 421.271 614.386C426.914 606.141 421.271 600.215 417.745 598.283C427.901 596.222 434.201 587.977 436.082 584.112Z" fill="#BEC6DC"/>
<path d="M356.388 520.989C335.513 522.02 328.413 533.872 327.473 539.669C316.189 537.607 310.076 544.821 308.431 548.686C302.789 565.691 311.722 575.954 316.894 578.96C313.509 595.449 322.536 598.283 327.473 597.639C324.652 609.491 329.588 615.03 332.409 616.318C343.129 620.441 349.571 612.883 351.451 608.589C353.144 620.441 362.5 623.833 366.967 624.048C382.765 624.563 383.423 609.233 381.777 601.504C385.163 606.141 392.121 606.012 395.177 605.368C408.154 600.731 405.286 589.695 402.23 584.757C424.234 594.032 432.556 582.61 433.966 575.739C433.966 561.826 419.391 560.066 412.103 560.924C410.975 540.313 391.886 539.883 382.483 542.245C380.226 525.24 364.146 520.989 356.388 520.989Z" fill="#D7DEF3"/>
<ellipse cx="13.3998" cy="10.9499" rx="13.3998" ry="10.9499" transform="matrix(-1 0 0 1 434.671 520.989)" fill="#D7DEF3"/>
<ellipse cx="13.3998" cy="10.9499" rx="13.3998" ry="10.9499" transform="matrix(-1 0 0 1 58.0652 497.801)" fill="#D7DEF3"/>
<path d="M287.978 591.305C287.414 581.515 277.87 580.355 273.168 580.999C275.425 570.178 267.056 566.185 262.589 565.541C265.974 554.72 261.179 546.861 258.358 544.285C242.56 533.464 230.147 543.641 225.916 550.082C216.324 532.562 200.762 528.611 194.179 528.826C164.841 530.372 158.447 551.8 158.917 562.32C145.376 552.014 126.005 557.167 118.012 561.032C113.498 548.665 100.145 546.432 94.0333 546.861C92.3407 531.403 79.6931 525.82 73.5809 524.961C51.5769 523.416 47.0163 538.917 47.4865 546.861C35.074 545.831 33.8515 554.591 34.7919 559.1C26.893 560.13 22.5674 565.97 21.392 568.761C18.571 579.582 28.2095 587.441 33.3813 590.017C27.1751 601.869 35.0269 607.838 39.7286 609.34C52.7053 612.432 58.3004 602.899 59.4758 597.746C62.2968 604.445 69.1143 604.402 72.1704 603.543C82.8902 598.906 79.458 587.011 76.4019 581.644C83.7366 585.766 90.2719 581.644 92.6228 579.067C97.1364 593.495 110.489 591.091 116.601 588.085C113.216 595.299 115.191 602.255 116.601 604.832C121.115 612.561 133.528 612.776 139.17 611.917C139.734 625.83 148.808 630.167 153.275 630.596C169.072 631.112 173.962 618.787 174.432 612.561C180.639 623.382 190.183 626.087 194.179 626.087C210.541 625.572 210.4 610.843 208.285 603.543C220.133 609.727 226.856 603.973 228.737 600.323C233.815 611.144 244.958 610.843 249.895 609.34C249.33 621.707 258.123 623.94 262.589 623.511C275.002 621.45 274.814 610.199 273.168 604.832C285.016 603.801 287.978 595.385 287.978 591.305Z" fill="#D7DEF3"/>
<path d="M240.021 562.213C254.126 564.274 261.884 557.06 264 553.195C265.692 557.317 263.765 562.642 262.589 564.789C246.227 560.667 239.316 571.23 237.905 577.027C235.084 566.721 223.095 565.433 217.453 566.077C221.402 559.378 234.144 560.71 240.021 562.213Z" fill="#BEC6DC"/>
<path d="M169.76 537.96C162.614 542.556 152.594 558.552 169.685 585.772C166.821 574.557 162.826 549.293 169.76 537.96Z" fill="#BEC6DC"/>
<path d="M188.232 559.402C189.215 553.106 195.396 548.333 199.523 546.076C200.586 545.494 201.843 545.437 203.001 545.799L259.363 563.397C261.098 563.939 262.552 565.418 262.201 567.201C261.392 571.306 257.13 573.988 254.677 574.931C251.466 576.295 250.266 578.317 250.067 579.158C249.386 582.019 252.753 584.475 254.521 585.344C256.039 586.199 256.763 587.023 257.027 587.74C257.557 589.181 255.5 589.676 254.015 589.287L251.598 588.654C249.711 588.16 247.708 588.809 246.469 590.316L236.618 602.3C235.45 603.721 233.481 604.719 231.808 605.483C229.909 606.573 230.051 608.245 230.523 609.326C230.71 609.754 231.051 610.088 231.405 610.393C233.86 612.511 234.526 614.054 234.543 614.586C234.588 617.118 232.269 618.286 229.872 618.751C227.749 619.163 225.634 617.569 223.768 616.474C221.133 614.93 217.081 613.751 214.704 613.23C212.795 612.872 210.261 611.653 209.232 611.088C205.807 608.799 206.521 605.543 207.685 603.525L207.71 603.482C208.119 602.773 208.569 601.992 208.23 601.251C207.5 599.656 205.024 598.247 203.611 597.646C201.519 596.863 199.912 595.326 198.763 593.748C198.061 592.783 193.626 590.862 192.463 591.124C190.093 591.748 189.224 592.567 189.087 592.898C188.281 594.345 186.714 596.78 185.679 595.487C185.123 594.793 184.776 594.104 184.61 593.596C184.02 590.339 187.584 586.677 189.44 585.253C190.417 584.483 191.091 583.518 191.548 582.543C192.424 580.675 188.987 579.492 186.955 579.136C184.778 578.755 186.547 577.177 188.471 576.091C189.197 575.682 189.678 575.305 189.964 575.013C190.167 574.805 190.34 574.567 190.51 574.331C192.141 572.074 191.105 568.989 190.341 567.672C188.481 564.066 188.16 560.656 188.232 559.402Z" fill="#D16B09"/>
<path d="M192.677 566.118C191.879 563.64 192.228 561.304 192.906 559.491C193.671 557.447 195.98 556.729 198.111 557.198L247.685 568.096C250.161 568.64 251.549 570.744 249.901 572.67C249.027 573.692 248.015 574.672 247.222 575.373C246.976 575.591 246.738 575.821 246.539 576.083C243.392 580.239 247.374 583.028 249.836 583.921C254.158 585.068 256.008 587.25 256.392 588.197C256.885 589.381 256.52 590.298 256.276 590.608C255.999 591.053 255.698 591.462 255.386 591.835C254.769 592.571 252.08 591.271 251.217 590.849C251.172 590.827 251.144 590.819 251.095 590.807C249.467 590.403 248.212 591.24 247.477 592.075C247.045 592.565 246.824 593.212 246.871 593.864C247.14 597.579 251.873 601.696 254.41 603.408C255.509 604.318 256.205 605.194 256.59 606.024C258.465 610.069 248.498 609.284 244.043 609.135C242.899 609.097 241.809 609.134 240.924 609.209C235.759 608.99 234.661 606.663 234.758 605.527C235.014 603.453 232.97 604.034 231.545 604.765C231.187 604.949 230.854 605.186 230.602 605.5C228.783 607.766 230.947 610.67 232.35 611.905C236.205 614.47 232.235 617.563 229.549 618.913C229.379 618.998 229.153 619.142 229.01 619.267C227.651 620.449 226.354 620.607 226.583 618.821C226.947 615.861 216.548 612.532 211.304 611.237C206.223 609.358 207.002 605.565 208.397 603.245C208.783 602.604 209.252 601.933 209.111 601.198C208.72 599.16 205.67 597.486 203.942 596.827C202.506 596.185 201.365 595.396 200.467 594.557C198.21 592.449 194.16 590.125 191.172 590.905C191.102 590.923 191.035 590.94 190.971 590.957C190.903 590.974 190.834 590.997 190.77 591.025C190.317 591.221 189.938 591.433 189.624 591.657C188.5 592.456 185.677 594.374 185.416 593.019C184.729 590.61 188.366 586.679 190.587 584.722C190.839 584.5 191.081 584.266 191.289 584.003C192.941 581.912 193.236 580.274 193.02 579.154C192.818 578.1 190.696 578.329 189.65 578.573C187.411 579.096 188.565 577.384 190.378 575.97C193.844 573.266 193.543 568.668 192.677 566.118Z" fill="#FA8408"/>
<path d="M194.441 560.327C193.694 551.713 198.862 546.477 201.609 544.911C214.064 539.731 229.293 542.54 235.351 544.592C250.089 548.928 257.771 556.292 260.895 561.164C261.946 562.804 261.468 564.922 259.816 565.952C254.29 569.395 246.519 569.937 242.871 569.714C239.811 569.877 239.054 571.727 239.04 572.939C239.037 573.223 239.106 573.501 239.223 573.76C240.303 576.162 244.283 579.965 246.368 581.763C246.468 581.849 246.562 581.943 246.645 582.045C247.838 583.505 248.411 584.783 248.607 585.851C248.808 586.941 247.388 586.322 246.578 585.566C245.914 584.946 245.317 585.836 245.267 586.743C245.176 588.398 244.469 589.529 244.003 589.974C239.019 594.748 241.824 598.787 243.85 600.21C244.316 600.451 244.751 600.689 245.158 600.926C247.664 602.383 245.565 604.741 242.666 604.724C241.071 604.7 238.611 603.879 237.58 603.471C235.983 602.932 234.952 601.134 234.321 599.21C233.555 596.877 231.462 595.292 230.527 597.563C229.437 600.212 226.995 601.461 227.715 598.688C228.127 597.103 228.957 595.463 229.661 594.349C233.038 590.307 229.517 585.524 226.991 583.306C226.711 583.06 226.39 582.868 226.065 582.683C223.66 581.316 220.252 578.115 218.761 576.591C216.685 574.647 213.019 572.957 213.247 575.792C213.268 576.055 213.3 576.296 213.339 576.51C214.623 581.207 219.936 588.496 222.701 591.892C222.895 592.131 223.073 592.382 223.204 592.66C225.513 597.555 221.423 603.745 218.913 606.416C218.831 606.503 218.747 606.623 218.698 606.731C218.095 608.048 216.569 610.818 215.269 610.179C215.196 610.143 215.13 610.109 215.07 610.078C210.695 608.223 211.497 605.434 212.445 604.272C214.204 601.803 211.484 599.216 209.903 598.231C208.576 597.364 205 593.686 203.377 591.955C200.301 588.567 203.155 583.733 204.966 581.74C205.377 581.191 205.727 580.675 206.024 580.192C207.075 578.485 205.908 578.271 204.675 579.852C202.462 582.738 196.449 585.928 193.718 587.162C193.046 587.521 192.125 586.869 192.497 586.203C193.747 583.965 195.676 581.553 196.772 580.322C198.098 578.729 199.055 577.189 199.733 575.819C200.325 574.624 198.163 574.856 197.018 575.539C196.033 576.125 196.221 574.534 196.438 573.409C197.162 569.663 195.844 564.557 194.746 561.602C194.593 561.191 194.479 560.765 194.441 560.327Z" fill="#F8B92C"/>
<path d="M210.549 592.395C209.75 591.864 209.149 591.305 208.709 590.737C206.573 587.978 211.089 587.359 213.635 589.745C214.625 590.673 215.533 591.399 216.14 591.831C219.33 594.431 214.457 595.412 211.208 592.888C210.972 592.704 210.75 592.539 210.549 592.395Z" fill="#F9EC4E"/>
<path d="M225.748 568.025C226.418 561.633 235.799 559.074 240.405 558.594C243.744 557.978 247.751 560.475 246.106 563.444C244.322 566.665 241.474 568.38 239.692 568.94C239.246 569.024 238.823 569.118 238.422 569.223C234.265 570.305 225.031 572.261 225.748 568.025Z" fill="#F9EC4E"/>
<path d="M201.154 554.005C206.806 542.979 220.306 542.64 226.349 543.849C232.335 544.644 235.066 547.647 235.683 549.049C237.088 553.316 229.662 556.995 225.306 558.478C224.951 558.599 224.58 558.667 224.207 558.71C219.426 559.269 216.233 561.768 214.249 564.425C212.761 566.418 210.206 566.494 210.923 564.111C211.693 561.554 210.047 559.446 208.875 561.846C208.042 563.554 207.749 565.461 207.742 566.755C207.295 569.798 203.69 568.288 202.776 565.352C202.748 565.261 202.72 565.172 202.692 565.087C202.577 564.734 202.388 564.413 202.171 564.113C199.326 560.171 200.282 555.768 201.154 554.005Z" fill="#F9EC4E"/>
<path d="M89.3363 554.441C90.3191 548.145 96.5001 543.371 100.627 541.114C101.691 540.532 102.948 540.476 104.105 540.837L160.468 558.435C162.202 558.977 163.656 560.456 163.305 562.239C162.496 566.344 158.234 569.026 155.781 569.969C152.57 571.334 151.37 573.356 151.172 574.196C150.491 577.058 153.857 579.513 155.625 580.383C157.143 581.238 157.868 582.061 158.131 582.778C158.661 584.219 156.604 584.714 155.119 584.326L152.703 583.693C150.815 583.198 148.813 583.847 147.574 585.355L137.722 597.338C136.554 598.759 134.586 599.758 132.912 600.521C131.013 601.612 131.156 603.283 131.627 604.364C131.814 604.793 132.155 605.126 132.509 605.431C134.964 607.55 135.63 609.092 135.647 609.624C135.692 612.156 133.374 613.324 130.977 613.789C128.853 614.202 126.739 612.607 124.872 611.513C122.237 609.968 118.186 608.79 115.808 608.268C113.899 607.91 111.365 606.691 110.337 606.127C106.912 603.837 107.626 600.581 108.789 598.563L108.814 598.52C109.223 597.811 109.674 597.031 109.334 596.29C108.604 594.695 106.129 593.285 104.716 592.685C102.623 591.902 101.017 590.364 99.8674 588.786C99.1654 587.822 94.7308 585.9 93.5673 586.163C91.1972 586.786 90.3289 587.605 90.191 587.936C89.3856 589.384 87.8183 591.818 86.783 590.525C86.2276 589.831 85.8801 589.143 85.7141 588.634C85.1248 585.377 88.6889 581.715 90.5446 580.292C91.521 579.521 92.1958 578.556 92.6526 577.582C93.528 575.714 90.0911 574.53 88.0592 574.175C85.8827 573.794 87.6517 572.216 89.5759 571.13C90.3012 570.72 90.7825 570.343 91.0682 570.051C91.2718 569.843 91.4444 569.605 91.6147 569.369C93.2455 567.112 92.2098 564.028 91.4457 562.71C89.5855 559.105 89.2643 555.695 89.3363 554.441Z" fill="#D16B09"/>
<path d="M93.7817 561.156C92.9833 558.679 93.3323 556.343 94.0106 554.529C94.7753 552.485 97.084 551.767 99.2157 552.236L148.789 563.134C151.266 563.679 152.653 565.782 151.005 567.709C150.132 568.73 149.119 569.71 148.327 570.411C148.08 570.629 147.842 570.859 147.643 571.122C144.497 575.278 148.478 578.066 150.941 578.959C155.262 580.107 157.112 582.288 157.497 583.235C157.989 584.419 157.625 585.336 157.381 585.646C157.103 586.092 156.803 586.5 156.49 586.873C155.873 587.61 153.184 586.309 152.321 585.887C152.276 585.865 152.248 585.857 152.2 585.845C150.571 585.441 149.316 586.278 148.581 587.113C148.149 587.603 147.929 588.25 147.976 588.902C148.245 592.618 152.977 596.734 155.514 598.446C156.613 599.357 157.31 600.233 157.694 601.063C159.569 605.107 149.602 604.323 145.147 604.173C144.003 604.135 142.913 604.172 142.028 604.247C136.863 604.028 135.766 601.701 135.862 600.565C136.119 598.492 134.074 599.073 132.65 599.803C132.291 599.987 131.958 600.224 131.706 600.538C129.887 602.805 132.051 605.708 133.454 606.943C137.309 609.509 133.34 612.601 130.653 613.951C130.483 614.036 130.258 614.18 130.114 614.305C128.755 615.487 127.459 615.646 127.688 613.86C128.051 610.899 117.653 607.57 112.408 606.275C107.328 604.397 108.107 600.603 109.501 598.284C109.887 597.642 110.356 596.972 110.215 596.236C109.825 594.198 106.775 592.524 105.047 591.866C103.61 591.223 102.469 590.434 101.571 589.595C99.3145 587.488 95.2639 585.164 92.2761 585.943C92.2066 585.961 92.1395 585.979 92.0752 585.995C92.007 586.013 91.9386 586.036 91.8741 586.064C91.4217 586.26 91.0425 586.471 90.7282 586.695C89.6042 587.494 86.7814 589.412 86.5201 588.058C85.8335 585.648 89.4699 581.717 91.6917 579.76C91.9434 579.538 92.1851 579.304 92.3931 579.041C94.045 576.95 94.3402 575.313 94.1247 574.193C93.9219 573.138 91.8001 573.368 90.7545 573.612C88.5155 574.134 89.6695 572.422 91.4823 571.008C94.9482 568.305 94.6476 563.707 93.7817 561.156Z" fill="#FA8408"/>
<path d="M95.5452 555.366C94.7987 546.751 99.9669 541.515 102.713 539.949C115.169 534.769 130.398 537.578 136.455 539.63C151.194 543.966 158.875 551.33 162 556.203C163.051 557.842 162.573 559.96 160.92 560.99C155.394 564.433 147.624 564.975 143.975 564.752C140.915 564.915 140.158 566.766 140.145 567.977C140.141 568.261 140.211 568.539 140.327 568.798C141.407 571.2 145.387 575.003 147.473 576.801C147.573 576.887 147.666 576.981 147.749 577.083C148.942 578.543 149.515 579.821 149.712 580.89C149.912 581.979 148.493 581.36 147.683 580.604C147.019 579.984 146.421 580.874 146.371 581.781C146.28 583.436 145.573 584.567 145.108 585.012C140.123 589.786 142.929 593.826 144.955 595.249C145.42 595.489 145.855 595.728 146.262 595.964C148.768 597.421 146.669 599.78 143.771 599.762C142.176 599.738 139.716 598.917 138.685 598.509C137.087 597.97 136.056 596.172 135.425 594.249C134.66 591.916 132.566 590.331 131.632 592.601C130.541 595.25 128.099 596.499 128.819 593.727C129.231 592.141 130.062 590.501 130.766 589.387C134.142 585.345 130.622 580.562 128.096 578.344C127.815 578.098 127.495 577.906 127.17 577.721C124.765 576.354 121.357 573.153 119.865 571.629C117.79 569.685 114.123 567.995 114.351 570.83C114.373 571.093 114.404 571.334 114.443 571.548C115.727 576.246 121.041 583.534 123.805 586.931C123.999 587.169 124.178 587.42 124.309 587.698C126.617 592.593 122.527 598.784 120.017 601.454C119.936 601.541 119.852 601.662 119.802 601.77C119.199 603.087 117.673 605.856 116.373 605.217C116.301 605.181 116.234 605.147 116.174 605.116C111.799 603.262 112.601 600.473 113.549 599.31C115.309 596.841 112.588 594.254 111.008 593.27C109.681 592.402 106.104 588.724 104.482 586.993C101.406 583.605 104.259 578.771 106.07 576.778C106.481 576.229 106.831 575.714 107.129 575.23C108.18 573.523 107.012 573.309 105.779 574.89C103.567 577.776 97.5531 580.966 94.8229 582.2C94.1502 582.559 93.2295 581.907 93.6014 581.241C94.8516 579.003 96.7804 576.592 97.8763 575.361C99.2021 573.767 100.159 572.227 100.837 570.857C101.429 569.662 99.2674 569.894 98.122 570.577C97.1373 571.164 97.325 569.573 97.5426 568.447C98.2665 564.701 96.9481 559.595 95.8507 556.64C95.6978 556.229 95.5831 555.803 95.5452 555.366Z" fill="#F8B92C"/>
<path d="M111.653 587.433C110.854 586.902 110.253 586.344 109.814 585.776C107.677 583.016 112.194 582.397 114.74 584.784C115.729 585.711 116.637 586.438 117.245 586.87C120.434 589.469 115.561 590.451 112.313 587.926C112.076 587.742 111.855 587.577 111.653 587.433Z" fill="#F9EC4E"/>
<path d="M126.853 563.064C127.523 556.671 136.903 554.113 141.51 553.632C144.848 553.016 148.855 555.513 147.21 558.483C145.426 561.703 142.578 563.418 140.797 563.978C140.35 564.062 139.928 564.157 139.527 564.261C135.369 565.344 126.135 567.299 126.853 563.064Z" fill="#F9EC4E"/>
<path d="M102.258 549.043C107.91 538.018 121.41 537.679 127.454 538.887C133.44 539.683 136.17 542.685 136.787 544.087C138.193 548.354 130.767 552.034 126.411 553.516C126.055 553.637 125.684 553.705 125.311 553.749C120.53 554.307 117.338 556.807 115.354 559.463C113.865 561.457 111.31 561.532 112.027 559.15C112.798 556.592 111.151 554.484 109.98 556.885C109.146 558.593 108.854 560.5 108.847 561.794C108.4 564.837 104.795 563.327 103.881 560.39C103.852 560.299 103.824 560.211 103.796 560.125C103.682 559.773 103.492 559.452 103.275 559.151C100.431 555.209 101.386 550.807 102.258 549.043Z" fill="#F9EC4E"/>
<path d="M369.186 307.387V469.073C369.186 588.697 176.114 507.371 76.6334 442.4L69.2299 268.89C78.2872 255.027 97.5642 247.819 99.4555 246.198L274.811 246.198C289.488 243.928 302.739 277.4 307.53 294.42C319.634 331.052 352.921 302.254 368.429 288.341L369.186 307.387Z" fill="#ECECEF" stroke="#D8D8D8" stroke-width="5"/>
<path d="M368.191 516.367C368.069 516.464 367.944 516.56 367.815 516.655C366.516 516.951 362.049 516.494 357.023 516.566C354.556 514.272 352.406 509.841 351.277 502.046C350.391 495.578 346.754 482.551 339.305 482.181C253.659 490.034 82.5587 487.54 83.3188 414.733V253.043C81.5451 253.505 73.9864 257.847 70.0336 253.043C68.6399 257.816 68.8757 265.516 68.8757 276.603L70.0336 476.983L204.677 531.869L339.305 526.234C339.522 518.154 348.986 516.682 357.023 516.566C360.698 519.985 365.075 518.661 367.815 516.655C368.08 516.594 368.213 516.502 368.191 516.367Z" fill="#D9D9DB"/>
<path d="M371.084 518.217L369.749 483.235C369.654 480.744 366.807 479.527 365.005 481.247C361.193 484.885 357.337 488.68 355.056 489.123C354.478 489.236 353.859 489.171 353.289 489.32L346.438 491.109C345.462 491.363 344.167 491.19 343.552 491.989C341.688 494.408 339.665 502.439 338.776 496.12C338.474 493.972 336.235 492.59 334.288 493.545L332.412 494.465C331.035 495.139 329.371 494.668 328.554 493.37L326.867 490.694C326.25 489.716 325.14 489.178 323.991 489.309C235.604 499.42 115.929 487.219 75.3949 467.095C73.2448 466.028 70.6765 467.622 71.0323 469.996C75.3731 498.954 104.66 525.493 122.573 531.513C122.79 531.586 123.012 531.629 123.241 531.648C254.2 542.749 341.957 529.172 369.024 521.148C370.31 520.767 371.135 519.558 371.084 518.217Z" fill="#272735" stroke="#1B1B25" stroke-width="5"/>
<path d="M354.096 500.041C358.575 500.245 361.763 500.014 363.966 499.616C366.549 499.149 366.518 496.724 364.356 495.235L358.504 491.201C358.251 491.027 358.02 490.825 357.779 490.634C356.292 489.458 353.393 488.641 351.716 488.295C351.424 488.234 351.134 488.209 350.836 488.209C339.692 488.211 318.25 488.281 318.25 488.551C318.25 488.798 319.24 490.804 319.876 492.054C319.999 492.297 320.093 492.552 320.222 492.792C322.765 497.532 343.693 499.597 354.096 500.041Z" fill="#8C9AC1" stroke="#7783A5" stroke-width="5"/>
<path d="M371.113 247.797C373.601 250.845 373.335 255.073 372.79 257.279C372.694 257.664 372.587 257.972 372.265 258.204C361.617 265.877 181.284 265.108 91.1341 263.737C71.2952 263.889 68.6071 258.36 69.7429 255.577C71.2573 250.112 101.167 239.384 115.933 234.703C154.399 221.496 213.234 220.218 237.844 221.23C329.012 227.606 364.677 241.598 371.113 247.797Z" fill="#ECECEF" stroke="#D8D8D8" stroke-width="5"/>
<path d="M92.0259 264.866H275.743C278.448 264.866 280.373 267.494 279.557 270.073L276.43 279.948C275.893 281.644 274.301 282.782 272.522 282.739L83.1256 278.233C59.0758 275.852 72.7104 260.471 72.7104 262.485C72.7104 264.097 85.5874 264.744 92.0259 264.866Z" fill="#76748A" stroke="#605F71" stroke-width="5"/>
<path d="M367.485 266.658C368.133 266.231 368.712 265.735 369.227 265.197C371.596 262.716 368.014 259.673 364.684 260.499C345.938 265.147 305.958 265.429 282.894 264.806C280.892 264.752 279.167 266.174 278.833 268.148L277.364 276.827C276.951 279.268 278.867 281.502 281.234 282.23C289.562 284.791 296.89 293.422 299.879 298.099C302.91 303.08 310.615 307.974 314.089 309.798C332.846 318.666 360.319 309.42 364.677 307.156C368.163 305.345 369.161 299.986 369.224 297.533C369.431 291.244 368 287.472 366.549 285.472C365.631 284.208 364.677 282.758 364.677 281.195V270.996C364.677 269.177 365.966 267.66 367.485 266.658Z" fill="#1E1B27" stroke="#1A1822" stroke-width="5"/>
<path d="M364.555 283.753V271.264C364.555 269.753 362.888 268.671 361.423 269.041C352.604 271.27 333.392 271.357 322.301 271.036C321.168 271.003 320.234 271.91 320.234 273.043V291.062C320.234 292.151 321.114 293.041 322.203 293.053C348.652 293.341 360.744 288.115 364.07 284.981C364.406 284.665 364.555 284.214 364.555 283.753Z" fill="#7DA357" stroke="#607E42" stroke-width="3"/>
<path d="M90.6904 264.27V258.898C81.7656 259.972 73.8618 257.427 71.0256 256.02C68.3027 258.322 69.891 260.305 71.0256 261.008C76.0174 263.924 86.2154 264.398 90.6904 264.27Z" fill="#FF080A" stroke="#E10506" stroke-width="4"/>
<path d="M289.774 553.663C290.756 547.367 296.937 542.594 301.064 540.336C302.128 539.755 303.385 539.698 304.542 540.06L360.905 557.658C362.639 558.199 364.093 559.678 363.742 561.461C362.934 565.567 358.671 568.249 356.218 569.192C353.008 570.556 351.808 572.578 351.609 573.419C350.928 576.28 354.294 578.735 356.063 579.605C357.581 580.46 358.305 581.284 358.569 582.001C359.098 583.442 357.042 583.937 355.557 583.548L353.14 582.915C351.252 582.421 349.25 583.07 348.011 584.577L338.16 596.561C336.991 597.982 335.023 598.98 333.35 599.744C331.451 600.834 331.593 602.506 332.065 603.587C332.252 604.015 332.593 604.349 332.947 604.654C335.402 606.772 336.068 608.315 336.085 608.847C336.129 611.379 333.811 612.547 331.414 613.012C329.29 613.424 327.176 611.83 325.31 610.735C322.675 609.191 318.623 608.012 316.245 607.491C314.336 607.133 311.802 605.914 310.774 605.349C307.349 603.06 308.063 599.804 309.227 597.786L309.251 597.743C309.66 597.034 310.111 596.253 309.772 595.512C309.042 593.917 306.566 592.508 305.153 591.907C303.061 591.124 301.454 589.587 300.305 588.008C299.603 587.044 295.168 585.123 294.005 585.385C291.634 586.009 290.766 586.827 290.628 587.159C289.823 588.606 288.256 591.041 287.22 589.748C286.665 589.054 286.317 588.365 286.151 587.857C285.562 584.6 289.126 580.938 290.982 579.514C291.958 578.744 292.633 577.779 293.09 576.804C293.965 574.936 290.528 573.753 288.497 573.397C286.32 573.016 288.089 571.438 290.013 570.352C290.739 569.943 291.22 569.565 291.506 569.274C291.709 569.066 291.882 568.828 292.052 568.592C293.683 566.335 292.647 563.25 291.883 561.933C290.023 558.327 289.702 554.917 289.774 553.663Z" fill="#D16B09"/>
<path d="M294.219 560.379C293.421 557.901 293.77 555.565 294.448 553.752C295.213 551.708 297.521 550.99 299.653 551.459L349.227 562.357C351.703 562.901 353.09 565.004 351.442 566.931C350.569 567.953 349.557 568.933 348.764 569.634C348.517 569.852 348.279 570.081 348.08 570.344C344.934 574.5 348.915 577.288 351.378 578.182C355.7 579.329 357.549 581.51 357.934 582.458C358.427 583.642 358.062 584.558 357.818 584.869C357.541 585.314 357.24 585.723 356.927 586.096C356.31 586.832 353.621 585.532 352.758 585.11C352.714 585.088 352.685 585.08 352.637 585.068C351.009 584.664 349.754 585.501 349.018 586.336C348.586 586.826 348.366 587.473 348.413 588.125C348.682 591.84 353.415 595.956 355.952 597.669C357.051 598.579 357.747 599.455 358.132 600.285C360.007 604.33 350.04 603.545 345.584 603.396C344.44 603.357 343.351 603.395 342.466 603.469C337.301 603.251 336.203 600.924 336.3 599.788C336.556 597.714 334.511 598.295 333.087 599.026C332.729 599.21 332.395 599.446 332.143 599.76C330.324 602.027 332.488 604.93 333.891 606.166C337.746 608.731 333.777 611.824 331.091 613.173C330.92 613.259 330.695 613.403 330.551 613.528C329.193 614.71 327.896 614.868 328.125 613.082C328.488 610.122 318.09 606.792 312.845 605.498C307.765 603.619 308.544 599.826 309.939 597.506C310.324 596.865 310.793 596.194 310.653 595.459C310.262 593.42 307.212 591.747 305.484 591.088C304.047 590.445 302.907 589.657 302.008 588.818C299.752 586.71 295.701 584.386 292.713 585.166C292.644 585.184 292.577 585.201 292.512 585.218C292.444 585.235 292.376 585.258 292.311 585.286C291.859 585.482 291.48 585.694 291.166 585.917C290.041 586.717 287.219 588.635 286.957 587.28C286.271 584.871 289.907 580.94 292.129 578.982C292.381 578.761 292.622 578.527 292.83 578.263C294.482 576.173 294.777 574.535 294.562 573.415C294.359 572.361 292.237 572.59 291.192 572.834C288.953 573.357 290.107 571.645 291.92 570.231C295.385 567.527 295.085 562.929 294.219 560.379Z" fill="#FA8408"/>
<path d="M295.983 554.588C295.236 545.973 300.404 540.738 303.15 539.172C315.606 533.992 330.835 536.801 336.893 538.853C351.631 543.189 359.313 550.552 362.437 555.425C363.488 557.064 363.01 559.183 361.357 560.213C355.831 563.656 348.061 564.198 344.413 563.975C341.353 564.138 340.595 565.988 340.582 567.2C340.579 567.484 340.648 567.762 340.765 568.021C341.844 570.423 345.824 574.226 347.91 576.024C348.01 576.11 348.103 576.204 348.187 576.306C349.38 577.766 349.952 579.043 350.149 580.112C350.35 581.202 348.93 580.583 348.12 579.827C347.456 579.207 346.859 580.097 346.809 581.004C346.718 582.659 346.011 583.79 345.545 584.234C340.561 589.009 343.366 593.048 345.392 594.471C345.857 594.711 346.293 594.95 346.7 595.187C349.206 596.644 347.106 599.002 344.208 598.985C342.613 598.961 340.153 598.139 339.122 597.732C337.525 597.193 336.493 595.395 335.862 593.471C335.097 591.138 333.004 589.553 332.069 591.824C330.978 594.473 328.536 595.722 329.257 592.949C329.669 591.363 330.499 589.724 331.203 588.61C334.58 584.568 331.059 579.785 328.533 577.567C328.252 577.32 327.932 577.129 327.607 576.944C325.202 575.577 321.794 572.376 320.303 570.852C318.227 568.908 314.56 567.218 314.789 570.053C314.81 570.316 314.842 570.557 314.88 570.771C316.164 575.468 321.478 582.756 324.243 586.153C324.437 586.392 324.615 586.643 324.746 586.921C327.055 591.815 322.964 598.006 320.455 600.677C320.373 600.764 320.289 600.884 320.239 600.992C319.637 602.309 318.11 605.079 316.811 604.44C316.738 604.404 316.672 604.37 316.611 604.339C312.237 602.484 313.039 599.695 313.986 598.532C315.746 596.064 313.025 593.477 311.445 592.492C310.118 591.625 306.541 587.947 304.919 586.216C301.843 582.827 304.696 577.994 306.507 576.001C306.918 575.452 307.269 574.936 307.566 574.453C308.617 572.746 307.449 572.532 306.217 574.113C304.004 576.999 297.99 580.188 295.26 581.423C294.588 581.782 293.667 581.13 294.039 580.464C295.289 578.226 297.218 575.814 298.314 574.583C299.639 572.99 300.596 571.45 301.275 570.08C301.866 568.885 299.705 569.117 298.559 569.799C297.575 570.386 297.762 568.795 297.98 567.67C298.704 563.924 297.385 558.818 296.288 555.863C296.135 555.452 296.02 555.026 295.983 554.588Z" fill="#F8B92C"/>
<path d="M312.09 586.656C311.291 586.125 310.691 585.566 310.251 584.998C308.115 582.239 312.631 581.62 315.177 584.006C316.166 584.934 317.074 585.66 317.682 586.092C320.871 588.692 315.999 589.673 312.75 587.148C312.513 586.965 312.292 586.8 312.09 586.656Z" fill="#F9EC4E"/>
<path d="M327.29 562.286C327.96 555.894 337.34 553.335 341.947 552.855C345.285 552.239 349.293 554.736 347.648 557.705C345.864 560.926 343.015 562.641 341.234 563.201C340.788 563.284 340.365 563.379 339.964 563.483C335.807 564.566 326.573 566.522 327.29 562.286Z" fill="#F9EC4E"/>
<path d="M302.695 548.266C308.347 537.24 321.847 536.901 327.891 538.11C333.877 538.905 336.607 541.908 337.225 543.31C338.63 547.577 331.204 551.256 326.848 552.739C326.493 552.86 326.122 552.928 325.749 552.971C320.967 553.53 317.775 556.029 315.791 558.686C314.302 560.679 311.747 560.755 312.465 558.372C313.235 555.815 311.588 553.707 310.417 556.107C309.583 557.815 309.291 559.722 309.284 561.016C308.837 564.059 305.232 562.549 304.318 559.612C304.29 559.522 304.262 559.433 304.234 559.348C304.119 558.995 303.93 558.674 303.713 558.374C300.868 554.432 301.823 550.029 302.695 548.266Z" fill="#F9EC4E"/>
<path d="M321.888 502.949C354.037 499.641 359.87 528.803 358.767 543.797H292.12C290.136 512.706 311.138 503.61 321.888 502.949Z" fill="#D1D0D6" stroke="#6A687E" stroke-width="4"/>
<path d="M294.588 542.99L301.381 541.151C300.334 529.905 306.144 507.447 337.103 507.58C343.15 509.184 356.948 518.735 356.948 543.601L358.855 543.601C357.814 528.11 355.879 518.957 350.333 513.398C346.805 508.151 334.589 499.145 313.95 505.099C306.398 507.372 291.459 518.133 292.12 542.99L294.588 542.99Z" fill="#A6A5B1"/>
<path d="M358.152 544.709L359.83 553.907L294.601 550.412L300.554 542.64C304.051 541.023 341.092 543.414 358.152 544.709Z" fill="#908EA7"/>
<path d="M303.862 549.255C308.264 549.755 342.633 551.739 359.925 552.173C367.224 554.11 318.826 553.197 294.435 552.172C287.957 552.096 291.122 545.402 291.955 542.551C291.976 541.917 298.35 542.394 302.15 542.551C300.598 544.908 299.46 548.754 303.862 549.255Z" fill="#76748A"/>
<path d="M294.636 551.998C315.999 552.407 344.608 553.335 357.048 553.725C358.554 553.773 359.948 552.916 359.936 551.409C359.925 549.944 359.61 548.209 359.235 546.694C358.849 545.137 357.44 544.079 355.84 543.967C319.981 541.467 300.255 541.558 293.64 542.14C292.258 542.261 291.274 543.281 291.197 544.665C291.129 545.898 291.109 547.445 291.185 548.896C291.28 550.707 292.823 551.964 294.636 551.998Z" stroke="#605F71" stroke-width="5"/>
<path d="M123.435 502.949C155.585 499.641 161.417 528.803 160.314 543.797H93.6673C91.6827 512.706 112.686 503.61 123.435 502.949Z" fill="#D1D0D6" stroke="#6A687E" stroke-width="4"/>
<path d="M96.1351 542.99L102.928 541.151C101.881 529.905 107.691 507.447 138.65 507.58C144.697 509.184 158.495 518.735 158.495 543.601L160.402 543.601C159.361 528.11 157.426 518.957 151.88 513.398C148.352 508.151 136.136 499.145 115.497 505.099C107.945 507.372 93.0057 518.133 93.6673 542.99L96.1351 542.99Z" fill="#A6A5B1"/>
<path d="M159.699 544.709L161.377 553.907L96.1479 550.412L102.101 542.64C105.599 541.023 142.639 543.414 159.699 544.709Z" fill="#908EA7"/>
<path d="M105.409 549.255C109.811 549.755 144.18 551.739 161.472 552.173C168.771 554.11 120.373 553.197 95.9825 552.172C89.5044 552.096 92.6697 545.402 93.5018 542.551C93.5231 541.917 99.8971 542.394 103.697 542.551C102.145 544.908 101.007 548.754 105.409 549.255Z" fill="#76748A"/>
<path d="M96.1834 551.998C117.546 552.407 146.155 553.335 158.595 553.725C160.101 553.773 161.495 552.916 161.484 551.409C161.472 549.944 161.157 548.209 160.782 546.694C160.396 545.137 158.988 544.079 157.387 543.967C121.528 541.467 101.802 541.558 95.1871 542.14C93.8055 542.261 92.8209 543.281 92.7444 544.665C92.6763 545.898 92.6559 547.445 92.732 548.896C92.827 550.707 94.3707 551.964 96.1834 551.998Z" stroke="#605F71" stroke-width="5"/>
<path d="M219.354 506.256C251.503 502.949 257.336 532.11 256.233 547.105H189.586C187.602 516.014 208.604 506.918 219.354 506.256Z" fill="#D1D0D6" stroke="#6A687E" stroke-width="4"/>
<path d="M192.054 546.298L198.847 544.459C197.8 533.213 203.61 510.755 234.569 510.887C240.616 512.491 254.414 522.042 254.414 546.909L256.321 546.909C255.28 531.417 253.345 522.264 247.799 516.706C244.271 511.459 232.055 502.453 211.416 508.406C203.864 510.68 188.925 521.441 189.586 546.298L192.054 546.298Z" fill="#A6A5B1"/>
<path d="M255.618 548.016L257.296 557.214L192.067 553.72L198.02 545.947C201.517 544.33 238.558 546.721 255.618 548.016Z" fill="#908EA7"/>
<path d="M201.328 552.562C205.73 553.063 240.099 555.047 257.391 555.48C264.69 557.417 216.292 556.504 191.901 555.48C185.423 555.404 188.589 548.71 189.421 545.859C189.442 545.225 195.816 545.702 199.616 545.859C198.064 548.216 196.926 552.062 201.328 552.562Z" fill="#76748A"/>
<path d="M192.102 555.306C213.465 555.714 242.074 556.643 254.514 557.033C256.02 557.08 257.414 556.223 257.402 554.716C257.391 553.252 257.076 551.516 256.701 550.001C256.315 548.444 254.906 547.386 253.306 547.275C217.447 544.774 197.721 544.865 191.106 545.447C189.724 545.569 188.74 546.588 188.663 547.973C188.595 549.206 188.575 550.753 188.651 552.204C188.746 554.014 190.289 555.271 192.102 555.306Z" stroke="#605F71" stroke-width="5"/>
<path d="M291.3 11.9619L290.408 11.5964L262.971 88.2289C262.919 90.5122 259.833 96.5213 259.652 97.1624L225.089 196.131L221.506 195.674C235.339 153.945 254.463 105.534 261.01 88.5287L288.46 10.8903L287.568 10.5248L289.434 5.22071L293.494 6.60787L291.3 11.9619Z" fill="#272735" stroke="#1B1B25" stroke-width="3"/>
<path d="M156.483 9.38853L157.39 9.0606L181.602 86.7724C181.559 89.0558 184.391 95.1887 184.545 95.8367L214.943 196.162L218.542 195.856C206.465 153.585 189.38 104.418 183.549 87.1538L159.366 8.43653L160.273 8.1086L158.63 2.73117L154.516 3.94752L156.483 9.38853Z" fill="#272735" stroke="#1B1B25" stroke-width="3"/>
<path d="M226.462 190.154V207.395C234.253 208.346 237.924 217.683 238.703 221.621C227.406 223.049 209.355 222.547 201.824 221.952C204.94 212.637 210.848 207.848 213.413 207.395L212.904 190.154C218.124 188.25 224.287 189.36 226.462 190.154Z" fill="#272735" stroke="#1B1B25" stroke-width="3"/>
</svg>
